<?xml version="1.0" encoding="UTF-8"?>
<svg width="193px" height="175px" viewBox="0 0 193 175" version="1.1" xmlns="http://www.w3.org/2000/svg" xmlns:xlink="http://www.w3.org/1999/xlink">
    <!-- Generator: Sketch 61 (89581) - https://sketch.com -->
    <title>graber-icons-swatchbook-ic18-v1</title>
    <desc>Created with Sketch.</desc>
    <defs>
        <path d="M11.4144223,155.653116 L23.79875,160.81162 L23.79875,77.6469582 L1.34277026,131.616683 C-2.45161953,141.005759 2.07361579,151.781744 11.4144223,155.653116 Z M191.622909,121.579052 L145.779872,11.324762 C142.936583,4.59974913 136.378996,0.159644221 129.050518,0 C126.657749,0 124.154854,0.369177262 121.752074,1.38690917 L53.6432776,29.4743144 C44.2924595,33.3656423 39.8272937,44.0618051 43.6717414,53.4209476 L89.5047664,163.66526 C93.4092836,172.994469 104.1417,177.444552 113.532565,173.613091 L181.551256,145.515708 C190.962144,141.684247 195.477368,130.95815 191.622909,121.579052 Z M51.6109263,50.657107 C51.6109263,43.054051 57.8481423,36.8379041 65.4769682,36.8379041 C73.1057941,36.8379041 79.34301,43.054051 79.34301,50.657107 C79.34301,58.2501853 73.1057941,64.4663322 65.4769682,64.4663322 C57.8481423,64.4663322 51.6109263,58.2501853 51.6109263,50.657107 Z M42.3702356,156.57107 C42.3702356,166.6985 50.6898607,175 60.851617,175 L74.2571261,175 L42.3702356,98.1811962 L42.3702356,156.57107 L42.3702356,156.57107 Z" id="path-1"></path>
    </defs>
    <g id="Mockups" stroke="none" stroke-width="1" fill="none" fill-rule="evenodd">
        <g id="collections-icon" transform="translate(0.000000, -12.000000)">
            <g id="graber-icons-swatchbook-ic18-v1" transform="translate(0.000000, 12.000000)">
                <mask id="mask-2" fill="white">
                    <use xlink:href="#path-1"></use>
                </mask>
                <g id="Clip-2"></g>
                <polygon id="Fill-1" fill="#FCFCFC" mask="url(#mask-2)" points="-3 178 195 178 195 0 -3 0"></polygon>
            </g>
        </g>
    </g>
</svg>