<?xml version="1.0" encoding="UTF-8"?>
<svg width="194px" height="154px" viewBox="0 0 194 154" version="1.1" xmlns="http://www.w3.org/2000/svg" xmlns:xlink="http://www.w3.org/1999/xlink">
    <!-- Generator: Sketch 61 (89581) - https://sketch.com -->
    <title>graber-icons-gallery-ic19-v1</title>
    <desc>Created with Sketch.</desc>
    <g id="Mockups" stroke="none" stroke-width="1" fill="none" fill-rule="evenodd">
        <g id="media-icon" transform="translate(-5.000000, -24.000000)" fill="#FCFCFC">
            <g id="graber-icons-gallery-ic19-v1" transform="translate(5.000000, 24.000000)">
                <path d="M39.7728707,138.28 L178.227129,138.28 L178.227129,38.72 L39.7728707,38.72 L39.7728707,138.28 Z M186.113565,154 L31.8864353,154 C27.533123,154 24,150.47872 24,146.14 L24,30.86 C24,26.52128 27.533123,23 31.8864353,23 L186.113565,23 C190.466877,23 194,26.52128 194,30.86 L194,146.14 C194,150.47872 190.466877,154 186.113565,154 L186.113565,154 Z" id="Fill-1"></path>
                <path d="M7.89860397,128 C3.53857458,128 0,124.480812 0,120.144669 L0,7.85533099 C0,3.51918828 3.53857458,0 7.89860397,0 L164.101396,0 C168.471957,0 172,3.51918828 172,7.85533099 C172,12.1914737 168.471957,15.710662 164.101396,15.710662 L15.7972079,15.710662 L15.7972079,120.144669 C15.7972079,124.480812 12.2586334,128 7.89860397,128" id="Fill-2"></path>
                <path d="M53,64.5052365 C53,56.5247382 59.5247382,50 67.4947635,50 C75.4752618,50 82,56.5247382 82,64.5052365 C82,72.4752618 75.4752618,79 67.4947635,79 C59.5247382,79 53,72.4752618 53,64.5052365" id="Fill-3"></path>
                <polyline id="Fill-4" points="84.24 92 115.92 113 142.32 71 174 134 42 134 84.24 92"></polyline>
            </g>
        </g>
    </g>
</svg>